<svg width="577" height="222" viewBox="0 0 577 222" fill="none" xmlns="http://www.w3.org/2000/svg">
<path d="M92.0898 102.084C94.0738 98.1987 96.8845 95.1813 100.522 93.032C104.242 90.8827 108.747 89.808 114.038 89.808V101.464H111.062C98.4138 101.464 92.0898 108.325 92.0898 122.048V159H80.8058V91.048H92.0898V102.084ZM189.064 122.42C189.064 124.569 188.94 126.843 188.692 129.24H134.38C134.793 135.936 137.066 141.185 141.2 144.988C145.416 148.708 150.5 150.568 156.452 150.568C161.329 150.568 165.38 149.452 168.604 147.22C171.91 144.905 174.225 141.847 175.548 138.044H187.7C185.881 144.575 182.244 149.907 176.788 154.04C171.332 158.091 164.553 160.116 156.452 160.116C150.004 160.116 144.217 158.669 139.092 155.776C134.049 152.883 130.081 148.791 127.188 143.5C124.294 138.127 122.848 131.927 122.848 124.9C122.848 117.873 124.253 111.715 127.064 106.424C129.874 101.133 133.801 97.0827 138.844 94.272C143.969 91.3787 149.838 89.932 156.452 89.932C162.9 89.932 168.604 91.3373 173.564 94.148C178.524 96.9587 182.326 100.844 184.972 105.804C187.7 110.681 189.064 116.22 189.064 122.42ZM177.408 120.064C177.408 115.765 176.457 112.087 174.556 109.028C172.654 105.887 170.05 103.531 166.744 101.96C163.52 100.307 159.924 99.48 155.956 99.48C150.252 99.48 145.374 101.299 141.324 104.936C137.356 108.573 135.082 113.616 134.504 120.064H177.408ZM231.61 100.348H217.35V159H206.066V100.348H197.262V91.048H206.066V86.212C206.066 78.6067 208.009 73.068 211.894 69.596C215.862 66.0413 222.186 64.264 230.866 64.264V73.688C225.906 73.688 222.393 74.68 220.326 76.664C218.342 78.5653 217.35 81.748 217.35 86.212V91.048H231.61V100.348ZM250.595 80.012C248.445 80.012 246.627 79.268 245.139 77.78C243.651 76.292 242.907 74.4733 242.907 72.324C242.907 70.1747 243.651 68.356 245.139 66.868C246.627 65.38 248.445 64.636 250.595 64.636C252.661 64.636 254.397 65.38 255.803 66.868C257.291 68.356 258.035 70.1747 258.035 72.324C258.035 74.4733 257.291 76.292 255.803 77.78C254.397 79.268 252.661 80.012 250.595 80.012ZM256.051 91.048V159H244.767V91.048H256.051ZM308.39 89.808C316.657 89.808 323.353 92.3293 328.478 97.372C333.604 102.332 336.166 109.524 336.166 118.948V159H325.006V120.56C325.006 113.781 323.312 108.615 319.922 105.06C316.533 101.423 311.904 99.604 306.034 99.604C300.082 99.604 295.329 101.464 291.774 105.184C288.302 108.904 286.566 114.319 286.566 121.428V159H275.282V91.048H286.566V100.72C288.798 97.248 291.816 94.5613 295.618 92.66C299.504 90.7587 303.761 89.808 308.39 89.808ZM416.599 122.42C416.599 124.569 416.475 126.843 416.227 129.24H361.915C362.328 135.936 364.601 141.185 368.735 144.988C372.951 148.708 378.035 150.568 383.987 150.568C388.864 150.568 392.915 149.452 396.139 147.22C399.445 144.905 401.76 141.847 403.083 138.044H415.235C413.416 144.575 409.779 149.907 404.323 154.04C398.867 158.091 392.088 160.116 383.987 160.116C377.539 160.116 371.752 158.669 366.627 155.776C361.584 152.883 357.616 148.791 354.723 143.5C351.829 138.127 350.383 131.927 350.383 124.9C350.383 117.873 351.788 111.715 354.599 106.424C357.409 101.133 361.336 97.0827 366.379 94.272C371.504 91.3787 377.373 89.932 383.987 89.932C390.435 89.932 396.139 91.3373 401.099 94.148C406.059 96.9587 409.861 100.844 412.507 105.804C415.235 110.681 416.599 116.22 416.599 122.42ZM404.943 120.064C404.943 115.765 403.992 112.087 402.091 109.028C400.189 105.887 397.585 103.531 394.279 101.96C391.055 100.307 387.459 99.48 383.491 99.48C377.787 99.48 372.909 101.299 368.859 104.936C364.891 108.573 362.617 113.616 362.039 120.064H404.943ZM427.277 124.776C427.277 117.832 428.683 111.756 431.493 106.548C434.304 101.257 438.148 97.1653 443.025 94.272C447.985 91.3787 453.524 89.932 459.641 89.932C464.932 89.932 469.851 91.172 474.397 93.652C478.944 96.0493 482.416 99.232 484.813 103.2V67.24H496.221V159H484.813V146.228C482.581 150.279 479.275 153.627 474.893 156.272C470.512 158.835 465.387 160.116 459.517 160.116C453.483 160.116 447.985 158.628 443.025 155.652C438.148 152.676 434.304 148.501 431.493 143.128C428.683 137.755 427.277 131.637 427.277 124.776ZM484.813 124.9C484.813 119.775 483.78 115.311 481.713 111.508C479.647 107.705 476.836 104.812 473.281 102.828C469.809 100.761 465.965 99.728 461.749 99.728C457.533 99.728 453.689 100.72 450.217 102.704C446.745 104.688 443.976 107.581 441.909 111.384C439.843 115.187 438.809 119.651 438.809 124.776C438.809 129.984 439.843 134.531 441.909 138.416C443.976 142.219 446.745 145.153 450.217 147.22C453.689 149.204 457.533 150.196 461.749 150.196C465.965 150.196 469.809 149.204 473.281 147.22C476.836 145.153 479.647 142.219 481.713 138.416C483.78 134.531 484.813 130.025 484.813 124.9Z" fill="black"/>
<rect x="4.5" y="4.5" width="568" height="213" stroke="black" stroke-width="9"/>
</svg>
